<?xml version="1.0" encoding="UTF-8"?>
<svg xmlns="http://www.w3.org/2000/svg" viewBox="0 0 400 560" width="400" height="560"
     role="img" aria-label="HUMBOLDT — MICROPROFILE TELEMETRY 2.2">
  <defs>
    <linearGradient id="bgGrad" x1="0" y1="0" x2="1" y2="1">
      <stop offset="0%" stop-color="#faf3e3"/><stop offset="100%" stop-color="#ede0c2"/>
    </linearGradient>
    <radialGradient id="medGrad" cx="0.42" cy="0.38" r="0.75">
      <stop offset="0%" stop-color="#fbf6ea"/><stop offset="100%" stop-color="#e6d7b4"/>
    </radialGradient>
    <linearGradient id="goldV" x1="0" y1="0" x2="0" y2="1">
      <stop offset="0%" stop-color="#e7c552"/><stop offset="55%" stop-color="#c9a227"/>
      <stop offset="100%" stop-color="#a07010"/>
    </linearGradient>
    <linearGradient id="navyV" x1="0" y1="0" x2="0" y2="1">
      <stop offset="0%" stop-color="#243a6e"/><stop offset="100%" stop-color="#101e3c"/>
    </linearGradient>
  </defs>
  <rect width="400" height="560" fill="url(#bgGrad)"/>
  <rect x="5" y="5" width="390" height="550" rx="2" fill="none" stroke="#1c2f5e" stroke-width="2.5"/>
  <rect x="10" y="10" width="380" height="540" rx="1" fill="none" stroke="#1c2f5e" stroke-width="0.7"/>
  <polygon points="5,17 14,8 23,17 14,26" fill="#c9a227"/>
  <polygon points="377,17 386,8 395,17 386,26" fill="#c9a227"/>
  <polygon points="5,543 14,534 23,543 14,552" fill="#c9a227"/>
  <polygon points="377,543 386,534 395,543 386,552" fill="#c9a227"/>
  <text x="200" y="34" text-anchor="middle" font-family="Georgia, 'Times New Roman', serif"
        font-size="7" letter-spacing="2.5" fill="#1c2f5e" opacity="0.72">MICROPROFILE TELEMETRY 2.2</text>
  <circle cx="200" cy="250" r="144" fill="#160902" opacity="0.10"/>
  <circle cx="200" cy="250" r="138" fill="url(#medGrad)" stroke="#1c2f5e" stroke-width="2"/>
  <circle cx="200" cy="250" r="131" fill="none" stroke="#c9a227" stroke-width="1.2" opacity="0.85"/>
  <circle cx="200" cy="250" r="127" fill="none" stroke="#a07010" stroke-width="0.5" opacity="0.6"/>
<g transform="translate(200.0,115.0) rotate(0.0)" opacity="0.8"><ellipse cx="0" cy="0" rx="3.6" ry="2.23" fill="none" stroke="#a07010" stroke-width="0.9"/><path d="M -2.81 -0.65 Q 0 1.15 2.81 -0.65" fill="none" stroke="#a07010" stroke-width="0.9"/></g>
<g transform="translate(241.7172942406179,121.60737030015429) rotate(18.0)" opacity="0.8"><ellipse cx="0" cy="0" rx="3.6" ry="2.23" fill="none" stroke="#a07010" stroke-width="0.9"/><path d="M -2.81 -0.65 Q 0 1.15 2.81 -0.65" fill="none" stroke="#a07010" stroke-width="0.9"/></g>
<g transform="translate(279.3510090594839,140.7827057593821) rotate(36.0)" opacity="0.8"><ellipse cx="0" cy="0" rx="3.6" ry="2.23" fill="none" stroke="#a07010" stroke-width="0.9"/><path d="M -2.81 -0.65 Q 0 1.15 2.81 -0.65" fill="none" stroke="#a07010" stroke-width="0.9"/></g>
<g transform="translate(309.2172942406179,170.64899094051611) rotate(54.0)" opacity="0.8"><ellipse cx="0" cy="0" rx="3.6" ry="2.23" fill="none" stroke="#a07010" stroke-width="0.9"/><path d="M -2.81 -0.65 Q 0 1.15 2.81 -0.65" fill="none" stroke="#a07010" stroke-width="0.9"/></g>
<g transform="translate(328.3926296998457,208.2827057593821) rotate(72.0)" opacity="0.8"><ellipse cx="0" cy="0" rx="3.6" ry="2.23" fill="none" stroke="#a07010" stroke-width="0.9"/><path d="M -2.81 -0.65 Q 0 1.15 2.81 -0.65" fill="none" stroke="#a07010" stroke-width="0.9"/></g>
<g transform="translate(335.0,250.0) rotate(90.0)" opacity="0.8"><ellipse cx="0" cy="0" rx="3.6" ry="2.23" fill="none" stroke="#a07010" stroke-width="0.9"/><path d="M -2.81 -0.65 Q 0 1.15 2.81 -0.65" fill="none" stroke="#a07010" stroke-width="0.9"/></g>
<g transform="translate(328.3926296998457,291.7172942406179) rotate(108.0)" opacity="0.8"><ellipse cx="0" cy="0" rx="3.6" ry="2.23" fill="none" stroke="#a07010" stroke-width="0.9"/><path d="M -2.81 -0.65 Q 0 1.15 2.81 -0.65" fill="none" stroke="#a07010" stroke-width="0.9"/></g>
<g transform="translate(309.2172942406179,329.3510090594839) rotate(126.0)" opacity="0.8"><ellipse cx="0" cy="0" rx="3.6" ry="2.23" fill="none" stroke="#a07010" stroke-width="0.9"/><path d="M -2.81 -0.65 Q 0 1.15 2.81 -0.65" fill="none" stroke="#a07010" stroke-width="0.9"/></g>
<g transform="translate(279.3510090594839,359.2172942406179) rotate(144.0)" opacity="0.8"><ellipse cx="0" cy="0" rx="3.6" ry="2.23" fill="none" stroke="#a07010" stroke-width="0.9"/><path d="M -2.81 -0.65 Q 0 1.15 2.81 -0.65" fill="none" stroke="#a07010" stroke-width="0.9"/></g>
<g transform="translate(241.7172942406179,378.3926296998457) rotate(162.0)" opacity="0.8"><ellipse cx="0" cy="0" rx="3.6" ry="2.23" fill="none" stroke="#a07010" stroke-width="0.9"/><path d="M -2.81 -0.65 Q 0 1.15 2.81 -0.65" fill="none" stroke="#a07010" stroke-width="0.9"/></g>
<g transform="translate(200.0,385.0) rotate(180.0)" opacity="0.8"><ellipse cx="0" cy="0" rx="3.6" ry="2.23" fill="none" stroke="#a07010" stroke-width="0.9"/><path d="M -2.81 -0.65 Q 0 1.15 2.81 -0.65" fill="none" stroke="#a07010" stroke-width="0.9"/></g>
<g transform="translate(158.28270575938205,378.3926296998457) rotate(198.00000000000003)" opacity="0.8"><ellipse cx="0" cy="0" rx="3.6" ry="2.23" fill="none" stroke="#a07010" stroke-width="0.9"/><path d="M -2.81 -0.65 Q 0 1.15 2.81 -0.65" fill="none" stroke="#a07010" stroke-width="0.9"/></g>
<g transform="translate(120.64899094051614,359.2172942406179) rotate(216.0)" opacity="0.8"><ellipse cx="0" cy="0" rx="3.6" ry="2.23" fill="none" stroke="#a07010" stroke-width="0.9"/><path d="M -2.81 -0.65 Q 0 1.15 2.81 -0.65" fill="none" stroke="#a07010" stroke-width="0.9"/></g>
<g transform="translate(90.78270575938211,329.3510090594839) rotate(234.0)" opacity="0.8"><ellipse cx="0" cy="0" rx="3.6" ry="2.23" fill="none" stroke="#a07010" stroke-width="0.9"/><path d="M -2.81 -0.65 Q 0 1.15 2.81 -0.65" fill="none" stroke="#a07010" stroke-width="0.9"/></g>
<g transform="translate(71.60737030015429,291.7172942406179) rotate(252.0)" opacity="0.8"><ellipse cx="0" cy="0" rx="3.6" ry="2.23" fill="none" stroke="#a07010" stroke-width="0.9"/><path d="M -2.81 -0.65 Q 0 1.15 2.81 -0.65" fill="none" stroke="#a07010" stroke-width="0.9"/></g>
<g transform="translate(65.0,250.00000000000003) rotate(270.0)" opacity="0.8"><ellipse cx="0" cy="0" rx="3.6" ry="2.23" fill="none" stroke="#a07010" stroke-width="0.9"/><path d="M -2.81 -0.65 Q 0 1.15 2.81 -0.65" fill="none" stroke="#a07010" stroke-width="0.9"/></g>
<g transform="translate(71.60737030015426,208.2827057593821) rotate(288.0)" opacity="0.8"><ellipse cx="0" cy="0" rx="3.6" ry="2.23" fill="none" stroke="#a07010" stroke-width="0.9"/><path d="M -2.81 -0.65 Q 0 1.15 2.81 -0.65" fill="none" stroke="#a07010" stroke-width="0.9"/></g>
<g transform="translate(90.7827057593821,170.64899094051614) rotate(306.0)" opacity="0.8"><ellipse cx="0" cy="0" rx="3.6" ry="2.23" fill="none" stroke="#a07010" stroke-width="0.9"/><path d="M -2.81 -0.65 Q 0 1.15 2.81 -0.65" fill="none" stroke="#a07010" stroke-width="0.9"/></g>
<g transform="translate(120.64899094051611,140.7827057593821) rotate(324.0)" opacity="0.8"><ellipse cx="0" cy="0" rx="3.6" ry="2.23" fill="none" stroke="#a07010" stroke-width="0.9"/><path d="M -2.81 -0.65 Q 0 1.15 2.81 -0.65" fill="none" stroke="#a07010" stroke-width="0.9"/></g>
<g transform="translate(158.28270575938208,121.60737030015429) rotate(342.0)" opacity="0.8"><ellipse cx="0" cy="0" rx="3.6" ry="2.23" fill="none" stroke="#a07010" stroke-width="0.9"/><path d="M -2.81 -0.65 Q 0 1.15 2.81 -0.65" fill="none" stroke="#a07010" stroke-width="0.9"/></g>
<text x="200" y="250" text-anchor="middle" font-family="Georgia, serif" font-size="44" font-weight="bold" fill="#1c2f5e" opacity="0.1">V</text><path d="M 122 288 A 96 96 0 0 1 278 288"
      fill="none" stroke="url(#goldV)" stroke-width="7"/><line x1="104.0" y1="288.0" x2="112.0" y2="288.0" stroke="#1c2f5e" stroke-width="1"/><line x1="107.3" y1="263.2" x2="115.0" y2="265.2" stroke="#1c2f5e" stroke-width="1"/><line x1="116.9" y1="240.0" x2="123.8" y2="244.0" stroke="#1c2f5e" stroke-width="1"/><line x1="132.1" y1="220.1" x2="137.8" y2="225.8" stroke="#1c2f5e" stroke-width="1"/><line x1="152.0" y1="204.9" x2="156.0" y2="211.8" stroke="#1c2f5e" stroke-width="1"/><line x1="175.2" y1="195.3" x2="177.2" y2="203.0" stroke="#1c2f5e" stroke-width="1"/><line x1="200.0" y1="192.0" x2="200.0" y2="200.0" stroke="#1c2f5e" stroke-width="1"/><line x1="224.8" y1="195.3" x2="222.8" y2="203.0" stroke="#1c2f5e" stroke-width="1"/><line x1="248.0" y1="204.9" x2="244.0" y2="211.8" stroke="#1c2f5e" stroke-width="1"/><line x1="267.9" y1="220.1" x2="262.2" y2="225.8" stroke="#1c2f5e" stroke-width="1"/><line x1="283.1" y1="240.0" x2="276.2" y2="244.0" stroke="#1c2f5e" stroke-width="1"/><line x1="292.7" y1="263.2" x2="285.0" y2="265.2" stroke="#1c2f5e" stroke-width="1"/><line x1="296.0" y1="288.0" x2="288.0" y2="288.0" stroke="#1c2f5e" stroke-width="1"/><path d="M 200 184 L 130 290 L 270 290 Z"
      fill="none" stroke="#1c2f5e" stroke-width="3"/>
    <line x1="200" y1="184" x2="200" y2="290" stroke="#1c2f5e" stroke-width="1.4" opacity="0.5"/><line x1="200" y1="184" x2="258" y2="284" stroke="#101e3c" stroke-width="2.6"/>
    <circle cx="200" cy="184" r="5" fill="#c9a227" stroke="#1c2f5e" stroke-width="1.4"/><g transform="translate(156,226) rotate(-28)">
      <rect x="0" y="-5" width="34" height="10" rx="2.5" fill="url(#navyV)" stroke="#1c2f5e" stroke-width="1"/>
      <rect x="30" y="-6.5" width="7" height="13" rx="1.5" fill="#a07010"/>
      <circle cx="3" cy="0" r="3" fill="#c9a227"/></g><circle cx="258" cy="284" r="6" fill="url(#navyV)" stroke="#c9a227" stroke-width="1.4"/><g opacity="0.92">
      <rect x="142" y="302" width="48" height="6" rx="3" fill="#1c2f5e"/>
      <rect x="156" y="311" width="34" height="6" rx="3" fill="#a07010"/>
      <rect x="170" y="320" width="60" height="6" rx="3" fill="#2a6a20"/>
      <circle cx="142" cy="305" r="2.2" fill="#1c2f5e"/>
      <circle cx="156" cy="314" r="2.2" fill="#a07010"/>
      <circle cx="170" cy="323" r="2.2" fill="#2a6a20"/></g>
  <text x="200" y="477" text-anchor="middle" font-family="Georgia, 'Times New Roman', serif"
        font-size="40" font-weight="bold" letter-spacing="6" fill="#1c2f5e">HUMBOLDT</text>
  <line x1="40" y1="491" x2="168" y2="491" stroke="#c9a227" stroke-width="1.5"/>
  <circle cx="200" cy="491" r="5.5" fill="none" stroke="#c9a227" stroke-width="1.5"/>
  <circle cx="200" cy="491" r="2.2" fill="#c9a227"/>
  <line x1="232" y1="491" x2="360" y2="491" stroke="#c9a227" stroke-width="1.5"/>
  <text x="200" y="514" text-anchor="middle" font-family="Georgia, 'Times New Roman', serif"
        font-size="10" letter-spacing="2.5" fill="#1c2f5e">TELEMETRY · VIDOCQ</text>
  <line x1="65" y1="527" x2="335" y2="527" stroke="#1c2f5e" stroke-width="0.5" opacity="0.38"/>
  <g fill="#c9a227" opacity="0.82">
    <polygon points="188,537 192,541 188,545 184,541"/>
    <polygon points="198,536 203,541 198,546 193,541"/>
    <polygon points="208,537 212,541 208,545 204,541"/>
  </g>
</svg>
